<svg xmlns="http://www.w3.org/2000/svg" width="180" height="180" viewBox="0 0 180 180">
  <defs>
    <linearGradient id="g" x1="0" y1="0" x2="1" y2="1">
      <stop offset="0%" stop-color="#145b4b"/>
      <stop offset="100%" stop-color="#c96d2d"/>
    </linearGradient>
  </defs>
  <rect width="180" height="180" rx="44" fill="url(#g)"/>
  <path d="M46 40h63c16 0 27 10 27 24 0 11-6 19-17 22 14 4 22 13 22 27 0 17-13 27-32 27H46V40zm24 20v25h32c6 0 10-4 10-12s-4-13-10-13H70zm0 44v17h36c6 0 10-3 10-8 0-6-5-9-11-9H70z" fill="#fff"/>
</svg>
